<?xml version="1.0" encoding="UTF-8" standalone="no"?>
<!-- Generator: Adobe Illustrator 28.1.0, SVG Export Plug-In . SVG Version: 6.00 Build 0)  -->

<svg
   version="1.1"
   id="Layer_1"
   x="0px"
   y="0px"
   viewBox="0 0 400 400"
   xml:space="preserve"
   sodipodi:docname="q3.svg"
   width="400"
   height="400"
   inkscape:version="1.3 (0e150ed6c4, 2023-07-21)"
   xmlns:inkscape="http://www.inkscape.org/namespaces/inkscape"
   xmlns:sodipodi="http://sodipodi.sourceforge.net/DTD/sodipodi-0.dtd"
   xmlns="http://www.w3.org/2000/svg"
   xmlns:svg="http://www.w3.org/2000/svg"><defs
   id="defs4">&#10;	&#10;	&#10;	&#10;	&#10;</defs><sodipodi:namedview
   id="namedview4"
   pagecolor="#ffffff"
   bordercolor="#000000"
   borderopacity="0.25"
   inkscape:showpageshadow="2"
   inkscape:pageopacity="0.0"
   inkscape:pagecheckerboard="0"
   inkscape:deskcolor="#d1d1d1"
   inkscape:zoom="1.89"
   inkscape:cx="200"
   inkscape:cy="200"
   inkscape:window-width="1920"
   inkscape:window-height="986"
   inkscape:window-x="-11"
   inkscape:window-y="-11"
   inkscape:window-maximized="1"
   inkscape:current-layer="Layer_1" />&#10;<style
   type="text/css"
   id="style1">&#10;	.st0{fill-rule:evenodd;clip-rule:evenodd;fill:#74AADB;}&#10;</style>&#10;<path
   class="st0"
   d="m 188.0552,99.916838 v -71.40361 c -38.00515,2.687232 -68.07656,33.398463 -70.12398,71.40361 z"
   id="path1"
   style="stroke-width:1.27963;fill:#be9256;fill-opacity:1" /><path
   class="st0"
   d="m 188.0552,109.38613 h -69.99601 c 2.68723,37.36533 32.50272,67.30878 69.86805,69.86805 v -69.86805 z"
   id="path3"
   style="stroke-width:1.27963;fill:#c9c3a9;fill-opacity:1" /><path
   class="st0"
   d="m 197.5245,109.38613 v 70.12398 c 38.00514,-2.04741 68.71637,-32.11883 71.27564,-69.99601 H 197.5245 Z"
   id="path4"
   style="stroke-width:1.27963;fill:#a9ceba;fill-opacity:1" />&#10;<path
   style="fill:#c68f4f;stroke-width:1.70618;fill-opacity:1"
   d="m 122.06802,158.58233 61.61204,223.42825 83.95487,-221.39709 z"
   id="path5" /><path
   style="fill:#e9a717;fill-opacity:1;stroke-width:1.33333"
   d="m 183.06878,161.37566 c 61.37566,59.25926 61.37566,59.25926 61.37566,59.25926"
   id="path6" /><path
   style="fill:none;fill-opacity:1;stroke:#e9ad71;stroke-width:1.33333;stroke-opacity:1"
   d="m 210.58201,160.31746 c 41.79894,37.03704 41.79894,38.09524 41.79894,38.09524"
   id="path7" /><path
   style="fill:none;fill-opacity:1;stroke:#e9ad71;stroke-width:1.33333;stroke-opacity:1"
   d="m 191.23809,159.73545 c 41.79894,37.03704 58.20106,50.79365 58.20106,50.79365"
   id="path8"
   sodipodi:nodetypes="cc" /><path
   style="fill:none;fill-opacity:1;stroke:#e9ad71;stroke-width:1.33333;stroke-opacity:1"
   d="m 175.23809,159.73545 c 41.79894,37.03704 68.25397,62.43386 68.25397,62.43386"
   id="path9"
   sodipodi:nodetypes="cc" /><path
   style="fill:none;fill-opacity:1;stroke:#e9ad71;stroke-width:1.33333;stroke-opacity:1"
   d="m 157.23809,159.73545 c 41.79894,37.03704 82.01058,71.42857 82.01058,71.42857"
   id="path10"
   sodipodi:nodetypes="cc" /><path
   style="fill:none;fill-opacity:1;stroke:#e9ad71;stroke-width:1.33333;stroke-opacity:1"
   d="m 137.23809,159.73545 c 41.79894,37.03704 97.8836,81.48148 97.8836,81.48148"
   id="path11"
   sodipodi:nodetypes="cc" /><path
   style="fill:none;fill-opacity:1;stroke:#e9ad71;stroke-width:1.33333;stroke-opacity:1"
   d="M 125.23809,167.73545 C 167.03703,204.77249 230,255.56614 230,255.56614"
   id="path12"
   sodipodi:nodetypes="cc" /><path
   style="fill:none;fill-opacity:1;stroke:#e9ad71;stroke-width:1.33333;stroke-opacity:1"
   d="m 129.23809,187.73545 c 41.79894,37.03704 98.4127,83.06878 98.4127,83.06878"
   id="path13"
   sodipodi:nodetypes="cc" /><path
   style="fill:none;fill-opacity:1;stroke:#e9ad71;stroke-width:1.33333;stroke-opacity:1"
   d="m 139.23809,213.73545 c 41.79894,37.03704 80.95238,69.84127 80.95238,69.84127"
   id="path14"
   sodipodi:nodetypes="cc" /><path
   style="fill:none;fill-opacity:1;stroke:#e9ad71;stroke-width:1.33333;stroke-opacity:1"
   d="m 143.23809,233.73545 c 41.79894,37.03704 71.95767,63.49206 71.95767,63.49206"
   id="path15"
   sodipodi:nodetypes="cc" /><path
   style="fill:none;fill-opacity:1;stroke:#e9ad71;stroke-width:1.33333;stroke-opacity:1"
   d="m 147.23809,253.73545 c 41.79894,37.03704 64.55027,55.55555 64.55027,55.55555"
   id="path16"
   sodipodi:nodetypes="cc" /><path
   style="fill:none;fill-opacity:1;stroke:#e9ad71;stroke-width:1.33333;stroke-opacity:1"
   d="m 155.23809,275.73545 c 41.79894,37.03704 50.26455,44.44444 50.26455,44.44444"
   id="path17"
   sodipodi:nodetypes="cc" /><path
   style="fill:none;fill-opacity:1;stroke:#e9ad71;stroke-width:1.33333;stroke-opacity:1"
   d="m 159.23809,293.73545 c 41.79894,37.03704 42.85714,38.09524 42.85714,38.09524"
   id="path18"
   sodipodi:nodetypes="cc" /><path
   style="fill:none;fill-opacity:1;stroke:#e9ad71;stroke-width:1.33333;stroke-opacity:1"
   d="m 165.23809,315.73545 c 41.79894,37.03704 32.80423,30.15873 32.80423,30.15873"
   id="path19"
   sodipodi:nodetypes="cc" /><path
   style="fill:none;fill-opacity:1;stroke:#e9ad71;stroke-width:1.33333;stroke-opacity:1"
   d="m 171.23809,337.73545 c 41.79894,37.03704 13.75661,12.69841 13.75661,12.69841"
   id="path20"
   sodipodi:nodetypes="cc" /><path
   style="fill:none;fill-opacity:1;stroke:#e9ad71;stroke-width:1.33333;stroke-opacity:1"
   d="m 235.60846,160.70899 c 41.79894,37.03704 18.51852,15.34392 18.51852,15.34392"
   id="path21"
   sodipodi:nodetypes="cc" /></svg>
